# File units = meters
mtllib Courtyard.mtl
g Courtyard
v 1.99776 0 -20.5231 
v 1.99776 2.5 -20.5231 
v 3.51041 2.5 -19.0104 
v 3.51041 0 -19.0104 
v 1.6442 2.5 -20.1695 
v 3.15685 2.5 -18.6569 
v 3.15685 0 -18.6569 
v 1.6442 0 -20.1695 
v 2.22375 -0.5 -19.59 
v 7.04594 -0.5 -14.7678 
v 6.69239 0 -15.1213 
v -1.18422 0 -22.9979 
v 7.04594 2.5 -14.7678 
v 6.69239 2.5 -15.1213 
v -2.59844 2.5 -24.4121 
v -2.59844 -0.5 -24.4121 
v -1.18422 2.5 -22.9979 
v -2.59844 -0.5 -35.2856 
v -2.59844 -0.5 -29.8489 
v -2.59844 2.5 -29.8489 
v -2.59844 2.5 -35.2856 
v 20.0204 -0.5 -35.2856 
v 12.4808 -0.5 -35.2856 
v 12.4808 2.5 -35.2856 
v 4.94116 2.5 -35.2856 
v 4.94116 -0.5 -35.2856 
v 20.0204 2.5 -35.2856 
v 29.9544 -0.5 -27.3176 
v 24.9874 -0.5 -31.3016 
v 24.9874 2.5 -31.3016 
v 29.9544 2.5 -27.3176 
v 6.2066 -0.5 -13.9284 
v 6.2066 2.5 -13.9284 
v 6.01659 -0.5 -13.1024 
v 6.01659 2.5 -13.1024 
v 6.71502 -0.5 -11.0845 
v 6.71502 2.5 -11.0845 
v 5.54081 -0.5 -8.24967 
v 5.54081 2.5 -8.24967 
v 3.48488 -0.5 -7.73227 
v 3.48488 2.5 -7.73227 
v 3 -0.5 -7.11024 
v 3 2.5 -7.11024 
v 3 -0.5 -0.920237 
v 3 2.5 -0.920237 
v 3 2.5 5.26977 
v 3 -0.5 5.26977 
v 11.5102 -0.5 5.26977 
v 29.9544 -0.5 -19.1112 
v 29.9544 -0.5 -10.9047 
v 24.9874 -0.5 1.28574 
v 20.0204 -0.5 5.26977 
v 29.9544 -0.5 -2.69829 
v 11.5102 2.5 5.26977 
v 20.0204 2.5 5.26977 
v 24.9874 2.5 1.28574 
v 29.9544 2.5 -2.69829 
v 29.9544 2.5 -10.9047 
v 29.9544 2.5 -19.1112 
v 7.04594 2.5 -15.4749 
v 7.04594 0 -15.4749 
v 7.75305 0 -14.7678 
v 7.75305 2.5 -14.7678 
v 6.66169 2.5 -13.6764 
v 6.66169 0 -13.6764 
v 6.53605 2.5 -13.1302 
v 6.53605 0 -13.1302 
v 7.24963 2.5 -11.0686 
v 7.24963 0 -11.0686 
v 5.90657 2.5 -7.82613 
v 5.90657 0 -7.82613 
v 3.77357 2.5 -7.28933 
v 3.77357 0 -7.28933 
v 3.5 2.5 -6.93838 
v 3.5 0 -6.93838 
v 3.5 2.5 -1.08431 
v 3.5 0 -1.08431 
v 3.5 0 4.76977 
v 3.5 2.5 4.76977 
v 11.6723 2.5 4.76977 
v 11.6723 0 4.76977 
v 19.8446 0 4.76977 
v 19.8446 2.5 4.76977 
v 24.6495 2.5 0.915778 
v 24.6495 0 0.915778 
v 29.4544 0 -2.93821 
v 29.4544 2.5 -2.93821 
v 29.4544 2.5 -10.9847 
v 29.4544 0 -10.9847 
v 29.4544 0 -19.0312 
v 29.4544 2.5 -19.0312 
v 29.4544 0 -27.0777 
v 29.4544 2.5 -27.0777 
v 24.6495 2.5 -30.9317 
v 24.6495 0 -30.9317 
v 19.8446 0 -34.7856 
v 19.8446 2.5 -34.7856 
v 12.5303 2.5 -34.7856 
v 12.5303 0 -34.7856 
v 5.21591 0 -34.7856 
v 5.21591 2.5 -34.7856 
v -2.09844 0 -34.7856 
v -2.09844 2.5 -34.7856 
v -2.09844 2.5 -29.7024 
v -2.09844 2.5 -24.6193 
v -0.830669 2.5 -23.3515 
v -2.09844 0 -29.7024 
v -2.09844 0 -24.6193 
v -0.830669 0 -23.3515 
vn 0.707107 0 -0.707107 
vn 0 1 0 
vn 0.707107 0 0.707107 
vn -0.707107 -5.23364e-17 -0.707107 
vn -0.707107 0 0.707107 
vn -1 0 0 
vn 0 0 -1 
vn 0.625693 0 -0.780069 
vn -0.707107 0 -0.707107 
vn -0.97455 0 -0.224172 
vn -0.944997 0 0.32708 
vn -0.92388 0 -0.382683 
vn -0.244054 0 -0.969762 
vn -0.788687 0 -0.614795 
vn -1 0 3.95322e-16 
vn 0 -1 0 
vn 0 0 1 
vn 0.625693 0 0.780069 
vn 1 0 0 
vn -0.707107 0 -0.707107 
vn 0.707107 0 -0.707107 
vn 0.707107 0 0.707107 
vn 0.97455 0 0.224172 
vn 0.944997 0 -0.32708 
vn 0.92388 0 0.382683 
vn 0.244054 0 0.969762 
vn 0.788687 0 0.614795 
vn 1 0 0 
vn 0 0 -1 
vn -0.625693 0 -0.780069 
vn -1 0 0 
vn -0.625693 0 0.780069 
vn 0 0 1 
vn 0 1 0 
vn 0.707107 0 -0.707107 
vn 1 0 0 
vn 0.707107 0 0.707107 
usemtl 0.768627_0.886275_0.952941_0.000000_0.000000
o mesh0
f 1//1 2//1 3//1 
f 3//1 4//1 1//1 
o mesh1
f 2//2 5//2 6//2 
f 6//2 3//2 2//2 
o mesh2
f 3//3 6//3 7//3 
f 7//3 4//3 3//3 
o mesh3
f 2//4 1//4 8//4 
f 8//4 5//4 2//4 
o mesh4
f 6//5 5//5 8//5 
f 8//5 9//5 6//5 
f 10//5 11//5 7//5 
f 9//5 8//5 12//5 
f 7//5 9//5 10//5 
f 9//5 7//5 6//5 
f 13//5 14//5 11//5 
f 15//5 16//5 12//5 
f 11//5 10//5 13//5 
f 12//5 16//5 9//5 
f 12//5 17//5 15//5 
o mesh5
f 18//6 19//6 20//6 
f 15//6 20//6 19//6 
f 19//6 16//6 15//6 
f 20//6 21//6 18//6 
o mesh6
f 22//7 23//7 24//7 
f 25//7 24//7 23//7 
f 23//7 26//7 25//7 
f 21//7 25//7 26//7 
f 26//7 18//7 21//7 
f 24//7 27//7 22//7 
o mesh7
f 28//8 29//8 30//8 
f 27//8 30//8 29//8 
f 29//8 22//8 27//8 
f 30//8 31//8 28//8 
o mesh8
f 10//9 32//9 33//9 
f 33//9 13//9 10//9 
o mesh9
f 32//10 34//10 35//10 
f 35//10 33//10 32//10 
o mesh10
f 34//11 36//11 37//11 
f 37//11 35//11 34//11 
o mesh11
f 36//12 38//12 39//12 
f 39//12 37//12 36//12 
o mesh12
f 38//13 40//13 41//13 
f 41//13 39//13 38//13 
o mesh13
f 40//14 42//14 43//14 
f 43//14 41//14 40//14 
o mesh14
f 42//15 44//15 45//15 
f 46//15 45//15 44//15 
f 44//15 47//15 46//15 
f 45//15 43//15 42//15 
o mesh15
f 29//16 9//16 16//16 
f 48//16 42//16 40//16 
f 29//16 19//16 23//16 
f 29//16 49//16 9//16 
f 50//16 34//16 32//16 
f 51//16 52//16 38//16 
f 36//16 50//16 53//16 
f 48//16 44//16 42//16 
f 19//16 26//16 23//16 
f 49//16 50//16 10//16 
f 16//16 19//16 29//16 
f 50//16 36//16 34//16 
f 53//16 51//16 36//16 
f 48//16 47//16 44//16 
f 19//16 18//16 26//16 
f 29//16 28//16 49//16 
f 38//16 36//16 51//16 
f 38//16 52//16 48//16 
f 10//16 9//16 49//16 
f 40//16 38//16 48//16 
f 32//16 10//16 50//16 
f 23//16 22//16 29//16 
o mesh16
f 47//17 48//17 54//17 
f 55//17 54//17 48//17 
f 48//17 52//17 55//17 
f 54//17 46//17 47//17 
o mesh17
f 52//18 51//18 56//18 
f 57//18 56//18 51//18 
f 51//18 53//18 57//18 
f 56//18 55//18 52//18 
o mesh18
f 53//19 50//19 58//19 
f 59//19 58//19 50//19 
f 50//19 49//19 59//19 
f 31//19 59//19 49//19 
f 49//19 28//19 31//19 
f 58//19 57//19 53//19 
o mesh19
f 11//20 14//20 60//20 
f 60//20 61//20 11//20 
o mesh20
f 62//21 61//21 60//21 
f 60//21 63//21 62//21 
o mesh21
f 64//22 65//22 62//22 
f 62//22 63//22 64//22 
o mesh22
f 66//23 67//23 65//23 
f 65//23 64//23 66//23 
o mesh23
f 68//24 69//24 67//24 
f 67//24 66//24 68//24 
o mesh24
f 70//25 71//25 69//25 
f 69//25 68//25 70//25 
o mesh25
f 72//26 73//26 71//26 
f 71//26 70//26 72//26 
o mesh26
f 74//27 75//27 73//27 
f 73//27 72//27 74//27 
o mesh27
f 74//28 76//28 77//28 
f 78//28 77//28 76//28 
f 76//28 79//28 78//28 
f 77//28 75//28 74//28 
o mesh28
f 79//29 80//29 81//29 
f 82//29 81//29 80//29 
f 80//29 83//29 82//29 
f 81//29 78//29 79//29 
o mesh29
f 83//30 84//30 85//30 
f 86//30 85//30 84//30 
f 84//30 87//30 86//30 
f 85//30 82//30 83//30 
o mesh30
f 87//31 88//31 89//31 
f 90//31 89//31 88//31 
f 88//31 91//31 90//31 
f 92//31 90//31 91//31 
f 91//31 93//31 92//31 
f 89//31 86//31 87//31 
o mesh31
f 93//32 94//32 95//32 
f 96//32 95//32 94//32 
f 94//32 97//32 96//32 
f 95//32 92//32 93//32 
o mesh32
f 97//33 98//33 99//33 
f 100//33 99//33 98//33 
f 98//33 101//33 100//33 
f 102//33 100//33 101//33 
f 101//33 103//33 102//33 
f 99//33 96//33 97//33 
o mesh33
f 45//34 46//34 79//34 
f 45//34 76//34 74//34 
f 64//34 63//34 13//34 
f 33//34 35//34 66//34 
f 43//34 74//34 72//34 
f 74//34 43//34 45//34 
f 66//34 64//34 33//34 
f 66//34 35//34 37//34 
f 54//34 80//34 79//34 
f 54//34 55//34 83//34 
f 56//34 84//34 83//34 
f 56//34 57//34 87//34 
f 59//34 31//34 93//34 
f 58//34 59//34 91//34 
f 25//34 21//34 103//34 
f 24//34 25//34 101//34 
f 72//34 70//34 39//34 
f 79//34 76//34 45//34 
f 68//34 37//34 39//34 
f 37//34 68//34 66//34 
f 83//34 80//34 54//34 
f 87//34 84//34 56//34 
f 91//34 88//34 58//34 
f 58//34 88//34 87//34 
f 30//34 94//34 93//34 
f 30//34 27//34 97//34 
f 101//34 98//34 24//34 
f 24//34 98//34 97//34 
f 72//34 41//34 43//34 
f 13//34 33//34 64//34 
f 83//34 55//34 56//34 
f 87//34 57//34 58//34 
f 97//34 94//34 30//34 
f 97//34 27//34 24//34 
f 39//34 70//34 68//34 
f 60//34 14//34 13//34 
f 93//34 91//34 59//34 
f 103//34 101//34 25//34 
f 20//34 104//34 103//34 
f 20//34 15//34 105//34 
f 13//34 63//34 60//34 
f 93//34 31//34 30//34 
f 105//34 104//34 20//34 
f 17//34 106//34 105//34 
f 79//34 46//34 54//34 
f 105//34 15//34 17//34 
f 103//34 21//34 20//34 
f 39//34 41//34 72//34 
o mesh34
f 82//34 71//34 73//34 
f 69//34 85//34 86//34 
f 85//34 69//34 71//34 
f 89//34 65//34 67//34 
f 62//34 90//34 92//34 
f 100//34 107//34 108//34 
f 77//34 78//34 81//34 
f 73//34 75//34 82//34 
f 71//34 82//34 85//34 
f 89//34 62//34 65//34 
f 62//34 95//34 96//34 
f 62//34 89//34 90//34 
f 108//34 109//34 100//34 
f 75//34 77//34 82//34 
f 67//34 69//34 89//34 
f 99//34 100//34 61//34 
f 92//34 95//34 62//34 
f 11//34 61//34 4//34 
f 100//34 1//34 4//34 
f 12//34 8//34 1//34 
f 100//34 102//34 107//34 
f 86//34 89//34 69//34 
f 96//34 99//34 62//34 
f 4//34 61//34 100//34 
f 109//34 1//34 100//34 
f 61//34 62//34 99//34 
f 1//34 109//34 12//34 
f 4//34 7//34 11//34 
f 81//34 82//34 77//34 
o mesh35
f 105//35 106//35 109//35 
f 109//35 108//35 105//35 
o mesh36
f 103//36 104//36 107//36 
f 108//36 107//36 104//36 
f 104//36 105//36 108//36 
f 107//36 102//36 103//36 
o mesh37
f 12//37 109//37 106//37 
f 106//37 17//37 12//37 
