# File units = meters
mtllib PathfindGuarden.mtl
g PathfindGuarden
v -2.5 0 13 
v -2.5 5 13 
v -3 5 13 
v -3 0 13 
v -2.5 5 15.5 
v -3 5 15.5 
v -2.5 0 15.5 
v -3 0 15.5 
v -3 0 17.5 
v -3 6 17.5 
v -3 6 10.25 
v -3 0 3 
v -3 6 3 
v -9.54954 0 17.5 
v -9.54954 6 17.5 
v -16.0991 6 17.5 
v -16.0991 0 17.5 
v -16.0991 0 8.2652 
v -16.0991 6 8.2652 
v -16.0991 6 -0.969593 
v -16.0991 0 -0.969593 
v -16.0991 6 -10.2044 
v -16.0991 0 -10.2044 
v -9.34876 0 -16.9547 
v -9.34876 6 -16.9547 
v -2.59844 6 -23.705 
v -2.59844 0 -23.705 
v -1.53778 0 -22.6444 
v -1.53778 6 -22.6444 
v -1.18422 0 -22.9979 
v -1.18422 6 -22.9979 
v 3 6 3 
v 3 -0.5 3 
v -3 -0.5 3 
v 3 -0.5 18 
v 3 -0.5 10.5 
v 3 6 10.5 
v 3 6 18 
v -16.5991 -0.5 18 
v -6.79954 -0.5 18 
v -6.79954 6 18 
v -16.5991 6 18 
v -16.5991 -0.5 -10.4115 
v -16.5991 -0.5 -0.940997 
v -16.5991 6 -0.940997 
v -16.5991 6 8.5295 
v -16.5991 -0.5 8.5295 
v -16.5991 6 -10.4115 
v -2.59844 -0.5 -24.4121 
v -9.59876 -0.5 -17.4118 
v -9.59876 6 -17.4118 
v -2.59844 6 -24.4121 
v -3 -0.5 -5.10355 
v -3 -0.5 -13.2071 
v 2.8033 -0.5 -19.0104 
v -3 0 -5.10355 
v -3 0 -13.2071 
v 2.8033 6 -19.0104 
v 1.6442 0 -20.1695 
v 1.6442 6 -20.1695 
v 2.44975 0 -18.6569 
v 2.44975 6 -18.6569 
v 1.29065 6 -19.816 
v 1.29065 0 -19.816 
v 2.5 0 10.5 
v -2.5 0 10.5 
v 2.5 0 17.5 
v -2.5 0 17.5 
v -2.5 6 17.5 
v 2.5 6 17.5 
v 2.5 6 3.5 
v 2.5 6 10.5 
v -2.5 6 3.5 
v -2.5 6 10.5 
v -2.5 2 8.5 
v -2.5 2 3.5 
v 2.5 2 8.5 
v 2.5 2 3.5 
vn 0 0 1 
vn 0 -1 0 
vn 0 0 -1 
vn -1 0 0 
vn 1 0 0 
vn 0.707107 0 0.707107 
vn -0.707107 0 0.707107 
vn 0 0 -1 
vn 1 0 -1.39538e-16 
vn 0 0 1 
vn -1 0 0 
vn -0.707107 0 -0.707107 
vn 0 -1 0 
vn 1 0 0 
vn 0.707107 0 -0.707107 
vn 0.707107 0 0.707107 
vn 0 1 0 
vn -0.707107 0 -0.707107 
vn -0.707107 0 0.707107 
vn 0 1 0 
vn 0 0 -1 
vn 1 0 4.67462e-17 
vn -1 0 1.26883e-16 
vn 1.77636e-16 0 1 
vn 0 1 0 
vn 0 0.707107 0.707107 
usemtl 0.972549_0.529412_0.003922_0.000000_0.000000
o mesh0
f 1//1 2//1 3//1 
f 3//1 4//1 1//1 
o mesh1
f 2//2 5//2 6//2 
f 6//2 3//2 2//2 
o mesh2
f 7//3 8//3 6//3 
f 6//3 5//3 7//3 
o mesh3
f 9//4 10//4 6//4 
f 10//4 11//4 3//4 
f 12//4 4//4 11//4 
f 3//4 6//4 10//4 
f 4//4 3//4 11//4 
f 11//4 13//4 12//4 
f 6//4 8//4 9//4 
o mesh4
f 9//3 14//3 15//3 
f 16//3 15//3 14//3 
f 14//3 17//3 16//3 
f 15//3 10//3 9//3 
o mesh5
f 17//5 18//5 19//5 
f 20//5 19//5 18//5 
f 18//5 21//5 20//5 
f 22//5 20//5 21//5 
f 21//5 23//5 22//5 
f 19//5 16//5 17//5 
o mesh6
f 23//6 24//6 25//6 
f 26//6 25//6 24//6 
f 24//6 27//6 26//6 
f 25//6 22//6 23//6 
o mesh7
f 28//7 29//7 26//7 
f 26//7 27//7 28//7 
o mesh8
f 30//6 31//6 29//6 
f 29//6 28//6 30//6 
o mesh9
f 32//8 33//8 12//8 
f 33//8 34//8 12//8 
f 12//8 13//8 32//8 
o mesh10
f 35//9 36//9 37//9 
f 32//9 37//9 36//9 
f 36//9 33//9 32//9 
f 37//9 38//9 35//9 
o mesh11
f 39//10 40//10 41//10 
f 38//10 41//10 40//10 
f 40//10 35//10 38//10 
f 41//10 42//10 39//10 
o mesh12
f 43//11 44//11 45//11 
f 46//11 45//11 44//11 
f 44//11 47//11 46//11 
f 42//11 46//11 47//11 
f 47//11 39//11 42//11 
f 45//11 48//11 43//11 
o mesh13
f 49//12 50//12 51//12 
f 48//12 51//12 50//12 
f 50//12 43//12 48//12 
f 51//12 52//12 49//12 
o mesh14
f 44//13 53//13 34//13 
f 43//13 50//13 54//13 
f 34//13 39//13 47//13 
f 53//13 44//13 43//13 
f 36//13 35//13 40//13 
f 36//13 39//13 34//13 
f 54//13 53//13 43//13 
f 49//13 55//13 54//13 
f 34//13 33//13 36//13 
f 54//13 50//13 49//13 
f 34//13 47//13 44//13 
f 40//13 39//13 36//13 
o mesh15
f 34//14 53//14 56//14 
f 57//14 56//14 53//14 
f 53//14 54//14 57//14 
f 56//14 12//14 34//14 
o mesh16
f 55//15 49//15 30//15 
f 52//15 31//15 30//15 
f 58//15 55//15 59//15 
f 30//15 49//15 52//15 
f 30//15 59//15 55//15 
f 59//15 60//15 58//15 
o mesh17
f 54//16 55//16 61//16 
f 58//16 62//16 61//16 
f 61//16 55//16 58//16 
f 61//16 57//16 54//16 
o mesh18
f 63//17 62//17 58//17 
f 58//17 60//17 63//17 
o mesh19
f 64//18 63//18 60//18 
f 60//18 59//18 64//18 
o mesh20
f 61//19 62//19 63//19 
f 63//19 64//19 61//19 
o mesh21
f 23//20 56//20 57//20 
f 57//20 24//20 23//20 
f 21//20 12//20 56//20 
f 21//20 4//20 12//20 
f 57//20 61//20 64//20 
f 21//20 8//20 4//20 
f 23//20 21//20 56//20 
f 1//20 4//20 8//20 
f 8//20 7//20 1//20 
f 65//20 66//20 1//20 
f 8//20 18//20 14//20 
f 67//20 65//20 7//20 
f 1//20 7//20 65//20 
f 18//20 17//20 14//20 
f 24//20 64//20 28//20 
f 59//20 30//20 28//20 
f 64//20 24//20 57//20 
f 8//20 21//20 18//20 
f 28//20 64//20 59//20 
f 14//20 9//20 8//20 
f 7//20 68//20 67//20 
f 28//20 27//20 24//20 
o mesh22
f 68//21 69//21 70//21 
f 70//21 67//21 68//21 
o mesh23
f 46//20 42//20 16//20 
f 45//20 46//20 19//20 
f 51//20 25//20 26//20 
f 51//20 48//20 22//20 
f 19//20 20//20 45//20 
f 45//20 20//20 22//20 
f 37//20 32//20 71//20 
f 37//20 72//20 70//20 
f 22//20 25//20 51//20 
f 22//20 48//20 45//20 
f 42//20 41//20 15//20 
f 38//20 70//20 69//20 
f 70//20 38//20 37//20 
f 31//20 52//20 26//20 
f 16//20 19//20 46//20 
f 41//20 10//20 15//20 
f 71//20 72//20 37//20 
f 32//20 13//20 73//20 
f 10//20 69//20 74//20 
f 11//20 74//20 73//20 
f 26//20 52//20 51//20 
f 41//20 69//20 10//20 
f 73//20 71//20 32//20 
f 73//20 13//20 11//20 
f 15//20 16//20 42//20 
f 74//20 11//20 10//20 
f 69//20 41//20 38//20 
f 26//20 29//20 31//20 
o mesh24
f 2//22 66//22 75//22 
f 73//22 74//22 75//22 
f 2//22 1//22 66//22 
f 75//22 74//22 2//22 
f 69//22 5//22 2//22 
f 2//22 74//22 69//22 
f 68//22 7//22 5//22 
f 5//22 69//22 68//22 
f 75//22 76//22 73//22 
o mesh25
f 70//23 72//23 65//23 
f 72//23 77//23 65//23 
f 71//23 78//23 77//23 
f 77//23 72//23 71//23 
f 65//23 67//23 70//23 
o mesh26
f 71//24 73//24 76//24 
f 76//24 78//24 71//24 
o mesh27
f 78//25 76//25 75//25 
f 75//25 77//25 78//25 
o mesh28
f 77//26 75//26 66//26 
f 66//26 65//26 77//26 
