# File units = meters
mtllib PGDoor.mtl
g PGDoor
v 1.99776 6 -20.5231 
v -0.830669 6 -23.3515 
v -1.53778 6 -22.6444 
v 1.29065 6 -19.816 
v -0.830669 0 -23.3515 
v -1.53778 0 -22.6444 
v 1.99776 0 -20.5231 
v 1.29065 0 -19.816 
vn 0 1 0 
vn -0.707107 0 -0.707107 
vn 0 -1 0 
vn 0.707107 5.23364e-17 0.707107 
vn 0.707107 0 -0.707107 
vn -0.707107 0 0.707107 
usemtl 0.980392_0.713725_0.003922_0.000000_0.000000
o mesh0
f 1//1 2//1 3//1 
f 3//1 4//1 1//1 
o mesh1
f 5//2 6//2 3//2 
f 3//2 2//2 5//2 
o mesh2
f 7//3 8//3 6//3 
f 6//3 5//3 7//3 
o mesh3
f 1//4 4//4 8//4 
f 8//4 7//4 1//4 
o mesh4
f 5//5 2//5 1//5 
f 1//5 7//5 5//5 
o mesh5
f 8//6 4//6 3//6 
f 3//6 6//6 8//6 
