# File units = meters
mtllib windowPane.mtl
g windowPane
v 6.58137 4 -11.0884 
v 6.58137 5 -11.0884 
v 5.44937 5 -8.35556 
v 5.44937 4 -8.35556 
v 6.08367 4 -12.5264 
v 6.08367 5 -12.5264 
v 5.84742 4 -12.4446 
v 5.84742 5 -12.4446 
v 6.29854 4 -11.1413 
v 6.29854 5 -11.1413 
v 6.31407 4 -11.0964 
v 6.31407 5 -11.0964 
v 6.2959 4 -11.0525 
v 6.2959 5 -11.0525 
v 5.29054 4 -8.62538 
v 5.29054 5 -8.62538 
v 5.26649 4 -8.56733 
v 5.26649 5 -8.56733 
v 5.20556 4 -8.55199 
v 5.20556 5 -8.55199 
v 3.92905 5 -7.97295 
v 3.86803 5 -8.21539 
v 3.92905 4 -7.97295 
v 3.86803 4 -8.21539 
vn 0.92388 0 0.382683 
vn 0.944997 0 -0.32708 
vn -0.32708 0 -0.944997 
vn -0.944997 0 0.32708 
vn -0.92388 0 -0.382683 
vn -0.244054 0 -0.969762 
vn 0 1 0 
vn 0 -1 0 
vn -0.244054 0 -0.969762 
vn -0.969762 0 0.244054 
vn 0.244054 0 0.969762 
usemtl 0.917647_0.917647_0.917647_0.000000_0.000000
o mesh0
f 1//1 2//1 3//1 
f 3//1 4//1 1//1 
o mesh1
f 5//2 6//2 2//2 
f 2//2 1//2 5//2 
o mesh2
f 5//3 7//3 8//3 
f 8//3 6//3 5//3 
o mesh3
f 7//4 9//4 10//4 
f 10//4 8//4 7//4 
o mesh4
f 9//4 11//4 12//4 
f 12//4 10//4 9//4 
o mesh5
f 11//5 13//5 14//5 
f 14//5 12//5 11//5 
o mesh6
f 13//5 15//5 16//5 
f 16//5 14//5 13//5 
o mesh7
f 15//5 17//5 18//5 
f 18//5 16//5 15//5 
o mesh8
f 17//6 19//6 20//6 
f 20//6 18//6 17//6 
o mesh9
f 2//7 14//7 16//7 
f 2//7 12//7 14//7 
f 6//7 8//7 10//7 
f 21//7 3//7 20//7 
f 16//7 3//7 2//7 
f 10//7 2//7 6//7 
f 3//7 18//7 20//7 
f 10//7 12//7 2//7 
f 16//7 18//7 3//7 
f 20//7 22//7 21//7 
o mesh10
f 1//8 4//8 15//8 
f 5//8 1//8 9//8 
f 15//8 13//8 1//8 
f 1//8 11//8 9//8 
f 4//8 17//8 15//8 
f 23//8 24//8 19//8 
f 13//8 11//8 1//8 
f 19//8 4//8 23//8 
f 19//8 17//8 4//8 
f 9//8 7//8 5//8 
o mesh11
f 19//9 24//9 22//9 
f 22//9 20//9 19//9 
o mesh12
f 23//10 21//10 22//10 
f 22//10 24//10 23//10 
o mesh13
f 4//11 3//11 21//11 
f 21//11 23//11 4//11 
