# File units = meters
mtllib GS_mana.mtl
g mana
v -0.0862462 -0.05 -0.0362462 
v -0.0862462 0.34 -0.0362462 
v -0.0362462 0.34 -0.0862462 
v -0.0362462 -0.05 -0.0862462 
v 0.0362462 0.34 -0.0862462 
v 0.0362462 -0.05 -0.0862462 
v 0.0862462 -0.05 -0.0362462 
v 0.0862462 0.34 -0.0362462 
v -0.0155355 0.39 -0.0362462 
v 0.0155356 0.39 -0.0362462 
v 0.0362462 0.39 -0.0155356 
v 0.0862462 -0.05 0.0362462 
v 0.0862462 0.34 0.0362462 
v 0.0362462 0.39 0.0155356 
v 0.0362462 -0.05 0.0862462 
v 0.0362462 0.34 0.0862462 
v -0.0862462 -0.05 0.0362462 
v -0.0362462 -0.05 0.0862462 
v -0.0362462 0.34 0.0862462 
v 0.0155356 0.39 0.0362462 
v -0.0862462 0.34 0.0362462 
v -0.0155355 0.39 0.0362462 
v -0.0362462 0.39 0.0155356 
v -0.0362462 0.39 -0.0155356 
vn -0.707107 4.61495e-09 -0.707107 
vn 3.03752e-18 1.73802e-17 -1 
vn 0.707107 -4.61495e-09 -0.707107 
vn 4.61495e-09 0.707107 -0.707107 
vn 0.5 0.707107 -0.5 
vn 1 -6.52652e-09 -1.57871e-16 
vn 0.707107 0.707107 -9.93423e-17 
vn 0.707107 -4.61495e-09 0.707107 
vn -6.52652e-09 -1 -1.73802e-17 
vn -3.03752e-18 -1.73802e-17 1 
vn 0.5 0.707107 0.5 
vn -0.707107 4.61495e-09 0.707107 
vn 4.61495e-09 0.707107 0.707107 
vn 6.52652e-09 1 1.73802e-17 
vn -1 6.52652e-09 1.57871e-16 
vn -0.5 0.707107 0.5 
vn -0.5 0.707107 -0.5 
vn -0.707107 0.707107 1.23922e-16 
usemtl 0.647059_0.647059_0.647059_0.000000_0.000000
o mesh0
f 1//1 2//1 3//1 
f 3//1 4//1 1//1 
o mesh1
f 4//2 3//2 5//2 
f 5//2 6//2 4//2 
o mesh2
f 7//3 6//3 5//3 
f 5//3 8//3 7//3 
o mesh3
f 5//4 3//4 9//4 
f 9//4 10//4 5//4 
o mesh4
f 8//5 5//5 10//5 
f 10//5 11//5 8//5 
o mesh5
f 12//6 7//6 8//6 
f 8//6 13//6 12//6 
o mesh6
f 13//7 8//7 11//7 
f 11//7 14//7 13//7 
o mesh7
f 15//8 12//8 13//8 
f 13//8 16//8 15//8 
o mesh8
f 17//9 1//9 4//9 
f 7//9 15//9 18//9 
f 4//9 6//9 17//9 
f 7//9 12//9 15//9 
f 18//9 17//9 7//9 
f 6//9 7//9 17//9 
o mesh9
f 15//10 16//10 19//10 
f 19//10 18//10 15//10 
o mesh10
f 13//11 14//11 20//11 
f 20//11 16//11 13//11 
o mesh11
f 17//12 18//12 19//12 
f 19//12 21//12 17//12 
o mesh12
f 16//13 20//13 22//13 
f 22//13 19//13 16//13 
o mesh13
f 23//14 22//14 20//14 
f 23//14 10//14 9//14 
f 20//14 14//14 23//14 
f 23//14 11//14 10//14 
f 9//14 24//14 23//14 
f 14//14 11//14 23//14 
o mesh14
f 2//15 1//15 17//15 
f 17//15 21//15 2//15 
o mesh15
f 21//16 19//16 22//16 
f 22//16 23//16 21//16 
o mesh16
f 2//17 24//17 9//17 
f 9//17 3//17 2//17 
o mesh17
f 2//18 21//18 23//18 
f 23//18 24//18 2//18 
