# Made in Blockbench 4.8.3
mtllib ClassicBullet.mtl

o cylinder
v 0 0 0
v 0.07766504294495533 0 0.1875
v 0.1875 0 0.07766504294495534
v 0.1875 0 -0.07766504294495533
v 0.07766504294495535 0 -0.1875
v -0.07766504294495531 0 -0.18750000000000003
v -0.18749999999999997 0 -0.07766504294495545
v -0.1875 0 0.07766504294495537
v -0.07766504294495545 0 0.18749999999999997
v -0.1875 0.140625 0.07766504294495537
v -0.18749999999999997 0.140625 -0.07766504294495545
v -0.07766504294495531 0.140625 -0.18750000000000003
v 0.07766504294495535 0.140625 -0.1875
v 0.1875 0.140625 -0.07766504294495533
v 0.1875 0.140625 0.07766504294495534
v 0.07766504294495533 0.140625 0.1875
v -0.07766504294495545 0.140625 0.18749999999999997
v -0.0647208691207961 0.09375 -0.15625
v -0.15624999999999997 0.09375 -0.0647208691207962
v -0.15625 0.09375 0.06472086912079614
v -0.0647208691207962 0.09375 0.15625
v 0.06472086912079611 0.09375 0.15625
v 0.15625 0.09375 0.06472086912079612
v 0.15625 0.09375 -0.06472086912079611
v 0.06472086912079614 0.09375 -0.15625
v -0.0647208691207961 0.140625 -0.15625
v -0.15624999999999997 0.140625 -0.0647208691207962
v -0.15625 0.140625 0.06472086912079614
v -0.0647208691207962 0.140625 0.15625
v 0.06472086912079611 0.140625 0.15625
v 0.15625 0.140625 0.06472086912079612
v 0.15625 0.140625 -0.06472086912079611
v 0.06472086912079614 0.140625 -0.15625
v -0.07766504294495531 0.09375 -0.18750000000000003
v -0.18749999999999997 0.09375 -0.07766504294495545
v -0.1875 0.09375 0.07766504294495537
v -0.07766504294495545 0.09375 0.18749999999999997
v 0.07766504294495533 0.09375 0.1875
v 0.1875 0.09375 0.07766504294495534
v 0.1875 0.09375 -0.07766504294495533
v 0.07766504294495535 0.09375 -0.1875
v -0.07766504294495531 0.28125 -0.18750000000000003
v 0.07766504294495535 0.28125 -0.1875
v 0.1875 0.28125 -0.07766504294495533
v 0.1875 0.28125 0.07766504294495534
v 0.07766504294495533 0.28125 0.1875
v -0.07766504294495545 0.28125 0.18749999999999997
v -0.1875 0.28125 0.07766504294495537
v -0.18749999999999997 0.28125 -0.07766504294495545
v -0.07766504294495531 0.234375 -0.18750000000000003
v 0.07766504294495535 0.234375 -0.1875
v 0.1875 0.234375 -0.07766504294495533
v 0.1875 0.234375 0.07766504294495534
v 0.07766504294495533 0.234375 0.1875
v -0.07766504294495545 0.234375 0.18749999999999997
v -0.1875 0.234375 0.07766504294495537
v -0.18749999999999997 0.234375 -0.07766504294495545
v 0 0.625 0
v 0.05491747852752234 0.5700825214724776 0.13258252147247765
v 0.07766504294495534 0.4375 0.18750000000000003
v 0.13258252147247765 0.5700825214724776 0.054917478527522344
v 0.13258252147247765 0.5700825214724776 -0.05491747852752233
v 0.18750000000000003 0.4375 -0.07766504294495533
v 0.05491747852752236 0.5700825214724776 -0.13258252147247765
v 0.07766504294495535 0.4375 -0.18750000000000003
v -0.05491747852752232 0.5700825214724776 -0.13258252147247768
v -0.07766504294495531 0.4375 -0.18750000000000003
v -0.13258252147247762 0.5700825214724776 -0.05491747852752242
v -0.18749999999999997 0.4375 -0.07766504294495545
v -0.13258252147247765 0.5700825214724776 0.05491747852752237
v -0.1875 0.4375 0.07766504294495538
v -0.05491747852752243 0.5700825214724776 0.13258252147247762
v -0.07766504294495545 0.4375 0.18749999999999997
v 0.18750000000000003 0.4375 0.07766504294495534
vt 0.1875 0.57008125
vt 0.13258124999999998 0.625
vt 0.09375 0.53125
vt 0.48483750000000003 0.365746875
vt 0.48483750000000003 0.287621875
vt 0.5625 0.287621875
vt 0.5625 0.365746875
vt 0.1875 0.49241875
vt 0.1875 0.57008125
vt 0.09375 0.53125
vt 0.22679375000000002 0.521996875
vt 0.22679375000000002 0.443871875
vt 0.30445625 0.443871875
vt 0.30445625 0.521996875
vt 0.13258124999999998 0.4375
vt 0.1875 0.49241875
vt 0.09375 0.53125
vt 0 0.3046875
vt 0 0.2265625
vt 0.0776625 0.2265625
vt 0.0776625 0.3046875
vt 0.05491875 0.4375
vt 0.13258124999999998 0.4375
vt 0.09375 0.53125
vt 0.47679375 0.646996875
vt 0.47679375 0.568871875
vt 0.55445625 0.568871875
vt 0.55445625 0.646996875
vt 0 0.49241875
vt 0.05491875 0.4375
vt 0.09375 0.53125
vt 0.6098375 0.646996875
vt 0.6098375 0.568871875
vt 0.6875 0.568871875
vt 0.6875 0.646996875
vt 0 0.57008125
vt 0 0.49241875
vt 0.09375 0.53125
vt 0.35179375 0.521996875
vt 0.35179375 0.443871875
vt 0.42945625 0.443871875
vt 0.42945625 0.521996875
vt 0.05491875 0.625
vt 0 0.57008125
vt 0.09375 0.53125
vt 0.5625 0.8984375
vt 0.5625 0.8203125
vt 0.6401625 0.8203125
vt 0.6401625 0.8984375
vt 0.13258124999999998 0.625
vt 0.05491875 0.625
vt 0.09375 0.53125
vt 0.44554375 0.928246875
vt 0.44554375 0.850121875
vt 0.52320625 0.850121875
vt 0.52320625 0.928246875
vt 0.1875 0.34375
vt 0.1875 0.40625
vt 0.125 0.40625
vt 0.125 0.34375
vt 0.1875 0.25
vt 0.1875 0.3125
vt 0.125 0.3125
vt 0.125 0.25
vt 0.65625 0.28125
vt 0.65625 0.34375
vt 0.59375 0.34375
vt 0.59375 0.28125
vt 0.75 0.75
vt 0.75 0.8125
vt 0.6875 0.8125
vt 0.6875 0.75
vt 0.15625 0.6875
vt 0.15625 0.75
vt 0.09375 0.75
vt 0.09375 0.6875
vt 0.75 0.84375
vt 0.75 0.90625
vt 0.6875 0.90625
vt 0.6875 0.84375
vt 0.65625 0.375
vt 0.65625 0.4375
vt 0.59375 0.4375
vt 0.59375 0.375
vt 0.75 0.9375
vt 0.75 1
vt 0.6875 1
vt 0.6875 0.9375
vt 0.78125 0.5625
vt 0.78125 0.59375
vt 0.71875 0.59375
vt 0.71875 0.5625
vt 0.75 0.34375
vt 0.75 0.375
vt 0.6875 0.375
vt 0.6875 0.34375
vt 0.75 0.28125
vt 0.75 0.3125
vt 0.6875 0.3125
vt 0.6875 0.28125
vt 0.28125 0.28125
vt 0.28125 0.3125
vt 0.21875 0.3125
vt 0.21875 0.28125
vt 0.78125 0.625
vt 0.78125 0.65625
vt 0.71875 0.65625
vt 0.71875 0.625
vt 0.375 0.28125
vt 0.375 0.3125
vt 0.3125 0.3125
vt 0.3125 0.28125
vt 0.78125 0.6875
vt 0.78125 0.71875
vt 0.71875 0.71875
vt 0.71875 0.6875
vt 0.75 0.40625
vt 0.75 0.4375
vt 0.6875 0.4375
vt 0.6875 0.40625
vt 0.25804374999999996 0.625
vt 0.264515625 0.640625
vt 0.21874999999999997 0.686390625
vt 0.20312499999999997 0.67991875
vt 0.20312499999999997 0.67991875
vt 0.21874999999999997 0.686390625
vt 0.21874999999999997 0.751109375
vt 0.20312499999999997 0.75758125
vt 0.20312499999999997 0.75758125
vt 0.21874999999999997 0.751109375
vt 0.264515625 0.796875
vt 0.25804375 0.8125
vt 0.25804375 0.8125
vt 0.264515625 0.796875
vt 0.32923437499999997 0.796875
vt 0.33570625 0.8125
vt 0.33570625 0.8125
vt 0.32923437499999997 0.796875
vt 0.375 0.751109375
vt 0.390625 0.7575812499999999
vt 0.390625 0.75758125
vt 0.375 0.751109375
vt 0.375 0.686390625
vt 0.390625 0.67991875
vt 0.390625 0.67991875
vt 0.375 0.686390625
vt 0.32923437499999997 0.640625
vt 0.33570625 0.625
vt 0.33570625 0.625
vt 0.32923437499999997 0.640625
vt 0.264515625 0.640625
vt 0.25804374999999996 0.625
vt 0.061390625 0.984375
vt 0.05491875 1
vt 0 0.94508125
vt 0.015625 0.938609375
vt 0.015625 0.938609375
vt 0 0.94508125
vt 0 0.86741875
vt 0.015625 0.873890625
vt 0.015625 0.873890625
vt 0 0.86741875
vt 0.05491874999999999 0.8125
vt 0.06139062499999999 0.828125
vt 0.06139062499999999 0.828125
vt 0.05491874999999999 0.8125
vt 0.13258124999999998 0.8125
vt 0.126109375 0.828125
vt 0.126109375 0.828125
vt 0.13258124999999998 0.8125
vt 0.1875 0.8674187499999999
vt 0.171875 0.8738906249999999
vt 0.17187499999999994 0.873890625
vt 0.18749999999999994 0.8674187499999999
vt 0.18749999999999997 0.94508125
vt 0.17187499999999997 0.938609375
vt 0.17187499999999997 0.938609375
vt 0.1875 0.94508125
vt 0.13258125 1
vt 0.126109375 0.984375
vt 0.126109375 0.984375
vt 0.13258125 1
vt 0.05491875 1
vt 0.061390625 0.984375
vt 0.47679375 0.568871875
vt 0.47679375 0.545434375
vt 0.55445625 0.545434375
vt 0.55445625 0.568871875
vt 0 0.2265625
vt 0 0.203125
vt 0.0776625 0.203125
vt 0.0776625 0.2265625
vt 0.22679375000000002 0.443871875
vt 0.22679375000000002 0.420434375
vt 0.30445625 0.420434375
vt 0.30445625 0.443871875
vt 0.48483750000000003 0.287621875
vt 0.48483750000000003 0.264184375
vt 0.5625 0.264184375
vt 0.5625 0.287621875
vt 0.44554375 0.850121875
vt 0.44554375 0.826684375
vt 0.52320625 0.826684375
vt 0.52320625 0.850121875
vt 0.5625 0.8203125
vt 0.5625 0.796875
vt 0.6401625 0.796875
vt 0.6401625 0.8203125
vt 0.35179375 0.443871875
vt 0.35179375 0.420434375
vt 0.42945625 0.420434375
vt 0.42945625 0.443871875
vt 0.6098375 0.568871875
vt 0.6098375 0.545434375
vt 0.6875 0.545434375
vt 0.6875 0.568871875
vt 0.55445625 0.498559375
vt 0.55445625 0.545434375
vt 0.47679375 0.545434375
vt 0.47679375 0.498559375
vt 0.0776625 0.15625
vt 0.0776625 0.203125
vt 0 0.203125
vt 0 0.15625
vt 0.30445625 0.373559375
vt 0.30445625 0.420434375
vt 0.22679375000000002 0.420434375
vt 0.22679375000000002 0.373559375
vt 0.5625 0.21730937500000003
vt 0.5625 0.264184375
vt 0.48483750000000003 0.264184375
vt 0.48483750000000003 0.21730937500000003
vt 0.52320625 0.779809375
vt 0.52320625 0.826684375
vt 0.44554375 0.826684375
vt 0.44554375 0.779809375
vt 0.6401625 0.75
vt 0.6401625 0.796875
vt 0.5625 0.796875
vt 0.5625 0.75
vt 0.42945625 0.373559375
vt 0.42945625 0.420434375
vt 0.35179375 0.420434375
vt 0.35179375 0.373559375
vt 0.6875 0.498559375
vt 0.6875 0.545434375
vt 0.6098375 0.545434375
vt 0.6098375 0.498559375
vt 0.2545718303738459 1
vt 0.2225643357177357 0.9553727730258581
vt 0.296875 0.9358675584260424
vt 0.496209375 0.4375
vt 0.48483750000000003 0.365746875
vt 0.5625 0.365746875
vt 0.551128125 0.4375
vt 0.2225643357177357 0.9553727730258581
vt 0.22852804424842885 0.9007787872570626
vt 0.296875 0.9358675584260424
vt 0.238165625 0.59375
vt 0.22679375000000002 0.521996875
vt 0.30445625 0.521996875
vt 0.293084375 0.59375
vt 0.22852804424842885 0.9007787872570626
vt 0.269415625 0.8641144334260424
vt 0.296875 0.9358675584260424
vt 0.011371874999999997 0.376440625
vt 0 0.3046875
vt 0.0776625 0.3046875
vt 0.06629062499999999 0.376440625
vt 0.269415625 0.8641144334260424
vt 0.324334375 0.8641144334260424
vt 0.296875 0.9358675584260424
vt 0.488165625 0.71875
vt 0.47679375 0.646996875
vt 0.55445625 0.646996875
vt 0.543084375 0.71875
vt 0.324334375 0.8641144334260424
vt 0.3652219557515711 0.9007787872570626
vt 0.296875 0.9358675584260424
vt 0.621209375 0.71875
vt 0.6098375 0.646996875
vt 0.6875 0.646996875
vt 0.676128125 0.71875
vt 0.3652219557515711 0.9007787872570626
vt 0.3711856642822643 0.9553727730258581
vt 0.296875 0.9358675584260424
vt 0.363165625 0.59375
vt 0.35179375 0.521996875
vt 0.42945625 0.521996875
vt 0.418084375 0.59375
vt 0.3711856642822643 0.9553727730258581
vt 0.3391781696261541 1
vt 0.296875 0.9358675584260424
vt 0.573871875 0.970190625
vt 0.5625 0.8984375
vt 0.6401625 0.8984375
vt 0.6287906249999999 0.970190625
vt 0.005604425511009578 0.6928008194186768
vt 0.05689557448899042 0.6731720869562614
vt 0.056895574488990394 0.75
vt 0.456915625 1
vt 0.44554375 0.928246875
vt 0.52320625 0.928246875
vt 0.511834375 1
vn 0 -1 0
vn 0.7071067811865475 -1.88411095042053e-16 0.7071067811865476
vn 0 -1 0
vn 1 -1.7763568394002503e-16 0
vn 0 -1 0
vn 0.7071067811865476 -1.2560739669470203e-16 -0.7071067811865475
vn 0 -1 0
vn 1.786876988872621e-16 -1.7763568394002503e-16 -1
vn 0 -1 0
vn -0.7071067811865472 0 -0.7071067811865478
vn 0 -1 0
vn -1 0 -1.7868769888726192e-16
vn 0 -1 0
vn -0.7071067811865477 -6.280369834735099e-17 0.7071067811865474
vn 0 -1 0
vn -1.78687698887262e-16 0 1
vn -1 0 -1.7868769888726192e-16
vn -0.7071067811865472 0 -0.7071067811865478
vn 1.786876988872621e-16 0 -1
vn 0.7071067811865477 0 -0.7071067811865475
vn 1 0 0
vn 0.7071067811865475 0 0.7071067811865476
vn -1.7868769888726197e-16 0 1
vn -0.7071067811865477 0 0.7071067811865474
vn -0.7071067811865472 0 -0.7071067811865478
vn -1 0 -2.144252386647143e-16
vn -0.7071067811865478 0 0.7071067811865474
vn 0 0 1
vn 0.7071067811865475 0 0.7071067811865476
vn 1 0 0
vn 0.7071067811865477 0 -0.7071067811865474
vn 0 0 -1
vn 0 -1 0
vn 0 -1 0
vn 0 -1 0
vn 0 -1 0
vn 0 -1 0
vn 0 -1 0
vn 0 -1 0
vn 0 -1 0
vn 0 1 0
vn 0 1 0
vn 0 1 0
vn 0 1 0
vn 0 1 0
vn 0 1 0
vn 0 1 0
vn 0 1 0
vn 1.786876988872621e-16 0 -1
vn 0.7071067811865477 0 -0.7071067811865475
vn 1 0 0
vn 0.7071067811865475 0 0.7071067811865476
vn -1.7868769888726197e-16 0 1
vn -0.7071067811865477 0 0.7071067811865474
vn -1 0 -1.7868769888726192e-16
vn -0.7071067811865472 0 -0.7071067811865478
vn 1.786876988872621e-16 0 -1
vn 0.7071067811865477 0 -0.7071067811865475
vn 1 0 0
vn 0.7071067811865475 0 0.7071067811865476
vn -1.7868769888726197e-16 0 1
vn -0.7071067811865477 0 0.7071067811865474
vn -1 0 -1.7868769888726192e-16
vn -0.7071067811865472 0 -0.7071067811865478
vn 0.2705980500730987 0.9238795325112866 0.27059805007309873
vn 0.6532814824381882 0.38268343236509017 0.6532814824381882
vn 0.3826834323650901 0.9238795325112867 0
vn 0.9238795325112866 0.3826834323650901 0
vn 0.2705980500730987 0.9238795325112866 -0.2705980500730986
vn 0.6532814824381883 0.3826834323650902 -0.6532814824381882
vn 9.670508578188428e-17 0.9238795325112868 -0.3826834323650901
vn 0 0.3826834323650901 -0.9238795325112866
vn -0.27059805007309856 0.9238795325112867 -0.27059805007309873
vn -0.653281482438188 0.38268343236509 -0.6532814824381884
vn -0.38268343236509006 0.9238795325112866 -9.670508578188418e-17
vn -0.9238795325112867 0.38268343236508995 -1.5564448643005213e-16
vn -0.2705980500730987 0.9238795325112867 0.27059805007309856
vn -0.6532814824381883 0.38268343236509006 0.6532814824381881
vn -9.670508578188421e-17 0.9238795325112867 0.38268343236509017
vn -3.112889728601043e-16 0.38268343236509006 0.9238795325112867
usemtl m_6d343bc3-e4bb-f30e-fd08-5fce28ea3e75
f 3/1/1 2/2/1 1/3/1
f 60/4/2 46/5/2 45/6/2 74/7/2
f 4/8/3 3/9/3 1/10/3
f 74/11/4 45/12/4 44/13/4 63/14/4
f 5/15/5 4/16/5 1/17/5
f 63/18/6 44/19/6 43/20/6 65/21/6
f 6/22/7 5/23/7 1/24/7
f 65/25/8 43/26/8 42/27/8 67/28/8
f 7/29/9 6/30/9 1/31/9
f 67/32/10 42/33/10 49/34/10 69/35/10
f 8/36/11 7/37/11 1/38/11
f 69/39/12 49/40/12 48/41/12 71/42/12
f 9/43/13 8/44/13 1/45/13
f 71/46/14 48/47/14 47/48/14 73/49/14
f 2/50/15 9/51/15 1/52/15
f 73/53/16 47/54/16 46/55/16 60/56/16
f 8/57/17 36/58/17 35/59/17 7/60/17
f 7/61/18 35/62/18 34/63/18 6/64/18
f 6/65/19 34/66/19 41/67/19 5/68/19
f 5/69/20 41/70/20 40/71/20 4/72/20
f 4/73/21 40/74/21 39/75/21 3/76/21
f 3/77/22 39/78/22 38/79/22 2/80/22
f 2/81/23 38/82/23 37/83/23 9/84/23
f 9/85/24 37/86/24 36/87/24 8/88/24
f 19/89/25 27/90/25 26/91/25 18/92/25
f 20/93/26 28/94/26 27/95/26 19/96/26
f 21/97/27 29/98/27 28/99/27 20/100/27
f 22/101/28 30/102/28 29/103/28 21/104/28
f 23/105/29 31/106/29 30/107/29 22/108/29
f 24/109/30 32/110/30 31/111/30 23/112/30
f 25/113/31 33/114/31 32/115/31 24/116/31
f 18/117/32 26/118/32 33/119/32 25/120/32
f 12/121/33 26/122/33 27/123/33 11/124/33
f 11/125/34 27/126/34 28/127/34 10/128/34
f 10/129/35 28/130/35 29/131/35 17/132/35
f 17/133/36 29/134/36 30/135/36 16/136/36
f 16/137/37 30/138/37 31/139/37 15/140/37
f 15/141/38 31/142/38 32/143/38 14/144/38
f 14/145/39 32/146/39 33/147/39 13/148/39
f 13/149/40 33/150/40 26/151/40 12/152/40
f 18/153/41 34/154/41 35/155/41 19/156/41
f 19/157/42 35/158/42 36/159/42 20/160/42
f 20/161/43 36/162/43 37/163/43 21/164/43
f 21/165/44 37/166/44 38/167/44 22/168/44
f 22/169/45 38/170/45 39/171/45 23/172/45
f 23/173/46 39/174/46 40/175/46 24/176/46
f 24/177/47 40/178/47 41/179/47 25/180/47
f 25/181/48 41/182/48 34/183/48 18/184/48
f 43/185/49 51/186/49 50/187/49 42/188/49
f 44/189/50 52/190/50 51/191/50 43/192/50
f 45/193/51 53/194/51 52/195/51 44/196/51
f 46/197/52 54/198/52 53/199/52 45/200/52
f 47/201/53 55/202/53 54/203/53 46/204/53
f 48/205/54 56/206/54 55/207/54 47/208/54
f 49/209/55 57/210/55 56/211/55 48/212/55
f 42/213/56 50/214/56 57/215/56 49/216/56
f 12/217/57 50/218/57 51/219/57 13/220/57
f 13/221/58 51/222/58 52/223/58 14/224/58
f 14/225/59 52/226/59 53/227/59 15/228/59
f 15/229/60 53/230/60 54/231/60 16/232/60
f 16/233/61 54/234/61 55/235/61 17/236/61
f 17/237/62 55/238/62 56/239/62 10/240/62
f 10/241/63 56/242/63 57/243/63 11/244/63
f 11/245/64 57/246/64 50/247/64 12/248/64
f 59/249/65 61/250/65 58/251/65
f 59/252/66 60/253/66 74/254/66 61/255/66
f 61/256/67 62/257/67 58/258/67
f 61/259/68 74/260/68 63/261/68 62/262/68
f 62/263/69 64/264/69 58/265/69
f 62/266/70 63/267/70 65/268/70 64/269/70
f 64/270/71 66/271/71 58/272/71
f 64/273/72 65/274/72 67/275/72 66/276/72
f 66/277/73 68/278/73 58/279/73
f 66/280/74 67/281/74 69/282/74 68/283/74
f 68/284/75 70/285/75 58/286/75
f 68/287/76 69/288/76 71/289/76 70/290/76
f 70/291/77 72/292/77 58/293/77
f 70/294/78 71/295/78 73/296/78 72/297/78
f 72/298/79 59/299/79 58/300/79
f 72/301/80 73/302/80 60/303/80 59/304/80