{"asset":{"version":"2.0","generator":"Blockbench 4.8.3 glTF exporter"},"scenes":[{"nodes":[5],"name":"blockbench_export"}],"scene":0,"nodes":[{"rotation":[0.7071067811865475,0,0,0.7071067811865476],"name":"tube","mesh":0},{"name":"sphere","mesh":1},{"rotation":[0.7071067811865475,0,0,0.7071067811865476],"name":"tube","mesh":2},{"name":"Slide","children":[2]},{"name":"Head","children":[0,1,3]},{"children":[4]}],"bufferViews":[{"buffer":0,"byteOffset":0,"byteLength":1536,"target":34962,"byteStride":12},{"buffer":0,"byteOffset":1536,"byteLength":1536,"target":34962,"byteStride":12},{"buffer":0,"byteOffset":3072,"byteLength":1024,"target":34962,"byteStride":8},{"buffer":0,"byteOffset":4096,"byteLength":384,"target":34963},{"buffer":0,"byteOffset":4480,"byteLength":3168,"target":34962,"byteStride":12},{"buffer":0,"byteOffset":7648,"byteLength":3168,"target":34962,"byteStride":12},{"buffer":0,"byteOffset":10816,"byteLength":2112,"target":34962,"byteStride":8},{"buffer":0,"byteOffset":12928,"byteLength":720,"target":34963},{"buffer":0,"byteOffset":13648,"byteLength":1056,"target":34962,"byteStride":12},{"buffer":0,"byteOffset":14704,"byteLength":1056,"target":34962,"byteStride":12},{"buffer":0,"byteOffset":15760,"byteLength":704,"target":34962,"byteStride":8},{"buffer":0,"byteOffset":16464,"byteLength":264,"target":34963},{"buffer":0,"byteOffset":16728,"byteLength":24},{"buffer":0,"byteOffset":16752,"byteLength":72}],"buffers":[{"byteLength":16824,"uri":"data:application/octet-stream;base64,"}],"accessors":[{"bufferView":0,"componentType":5126,"count":128,"max":[0.1875,0.8125,-0.4375],"min":[-0.1875,0.125,-0.875],"type":"VEC3"},{"bufferView":1,"componentType":5126,"count":128,"max":[1,1,1],"min":[-1,-1,-1],"type":"VEC3"},{"bufferView":2,"componentType":5126,"count":128,"max":[2.125,2.75],"min":[0,0.3125],"type":"VEC2"},{"bufferView":3,"componentType":5123,"count":192,"max":[127],"min":[0],"type":"SCALAR"},{"bufferView":4,"componentType":5126,"count":264,"max":[0.3125,0.9375,0.3125],"min":[-0.3125,0.3125,-0.3125],"type":"VEC3"},{"bufferView":5,"componentType":5126,"count":264,"max":[0.9659258127212524,0.9659258127212524,0.9659258127212524],"min":[-0.9659258127212524,-0.9659258127212524,-0.9659258127212524],"type":"VEC3"},{"bufferView":6,"componentType":5126,"count":264,"max":[2.041268825531006,1.8125],"min":[0.2716519832611084,0],"type":"VEC2"},{"bufferView":7,"componentType":5123,"count":360,"max":[263],"min":[0],"type":"SCALAR"},{"bufferView":8,"componentType":5126,"count":88,"max":[0.25,0.75,-0.5656160712242126],"min":[-0.25,0.625,-0.9375],"type":"VEC3"},{"bufferView":9,"componentType":5126,"count":88,"max":[0.9998282790184021,1,1],"min":[-0.9998282790184021,-1,-1],"type":"VEC3"},{"bufferView":10,"componentType":5126,"count":88,"max":[2.3125,1.9375],"min":[0.25,0.25],"type":"VEC2"},{"bufferView":11,"componentType":5123,"count":132,"max":[87],"min":[0],"type":"SCALAR"},{"bufferView":12,"componentType":5126,"count":6,"max":[1],"min":[0],"type":"SCALAR"},{"bufferView":13,"componentType":5126,"count":6,"max":[0,0.0625,0],"min":[0,0,-0.42500001192092896],"type":"VEC3"}],"materials":[{"pbrMetallicRoughness":{"metallicFactor":0,"roughnessFactor":1},"alphaMode":"MASK","alphaCutoff":0.05,"doubleSided":true}],"meshes":[{"primitives":[{"mode":4,"attributes":{"POSITION":0,"NORMAL":1,"TEXCOORD_0":2},"indices":3,"material":0}]},{"primitives":[{"mode":4,"attributes":{"POSITION":4,"NORMAL":5,"TEXCOORD_0":6},"indices":7,"material":0}]},{"primitives":[{"mode":4,"attributes":{"POSITION":8,"NORMAL":9,"TEXCOORD_0":10},"indices":11,"material":0}]}],"animations":[{"name":"animation.model.SlideReload","samplers":[{"input":12,"output":13,"interpolation":"LINEAR"}],"channels":[{"sampler":0,"target":{"node":3,"path":"translation"}}]}]}