{"asset":{"version":"2.0","generator":"Blockbench 4.8.3 glTF exporter"},"scenes":[{"nodes":[18],"name":"blockbench_export"}],"scene":0,"nodes":[{"name":"MainFrame","mesh":0},{"name":"FrameMe","children":[0]},{"translation":[0,-0.3125,-2.625],"name":"ButtonShaft","mesh":1},{"translation":[0,-1.0625,-2.625],"name":"cuboid","mesh":2},{"translation":[0,0.75,0],"name":"Button","children":[3]},{"translation":[0,0.0625,0.4375],"name":"Slider","mesh":3},{"rotation":[0,0,-0.7071067811865475,0.7071067811865476],"name":"cylinder","mesh":4},{"rotation":[0,0,0.7071067811865475,0.7071067811865476],"name":"cylinder","mesh":5},{"rotation":[-0.7071067811865475,0,0,0.7071067811865476],"translation":[0,-0.17914290641559788,0.05449982332240033],"name":"Cover","mesh":6},{"rotation":[0.7071067811865475,0,0,0.7071067811865476],"translation":[0,0,0.375],"name":"ButtonCap","children":[8]},{"translation":[0,0,-0.5],"name":"ButtonSlider","children":[5,6,7,9]},{"translation":[0,0.3125,2.625],"name":"ButtonMechanism","children":[2,4,10]},{"name":"cuboid","mesh":7},{"name":"ButtonKill","children":[12]},{"name":"cylinder","mesh":8},{"translation":[0,0.0625,0],"name":"BCasing","children":[14]},{"rotation":[0.2748024145904376,-0.1667541987166971,-0.22507193279958276,0.9197930719523155],"translation":[0.3125,0.125,2.625],"name":"Unlock","children":[13,15]},{"name":"SpawnPad","children":[1,11,16]},{"children":[17]}],"bufferViews":[{"buffer":0,"byteOffset":0,"byteLength":30432,"target":34962,"byteStride":12},{"buffer":0,"byteOffset":30432,"byteLength":30432,"target":34962,"byteStride":12},{"buffer":0,"byteOffset":60864,"byteLength":20288,"target":34962,"byteStride":8},{"buffer":0,"byteOffset":81152,"byteLength":7608,"target":34963},{"buffer":0,"byteOffset":88760,"byteLength":1440,"target":34962,"byteStride":12},{"buffer":0,"byteOffset":90200,"byteLength":1440,"target":34962,"byteStride":12},{"buffer":0,"byteOffset":91640,"byteLength":960,"target":34962,"byteStride":8},{"buffer":0,"byteOffset":92600,"byteLength":288,"target":34963},{"buffer":0,"byteOffset":92888,"byteLength":3072,"target":34962,"byteStride":12},{"buffer":0,"byteOffset":95960,"byteLength":3072,"target":34962,"byteStride":12},{"buffer":0,"byteOffset":99032,"byteLength":2048,"target":34962,"byteStride":8},{"buffer":0,"byteOffset":101080,"byteLength":768,"target":34963},{"buffer":0,"byteOffset":101848,"byteLength":1248,"target":34962,"byteStride":12},{"buffer":0,"byteOffset":103096,"byteLength":1248,"target":34962,"byteStride":12},{"buffer":0,"byteOffset":104344,"byteLength":832,"target":34962,"byteStride":8},{"buffer":0,"byteOffset":105176,"byteLength":312,"target":34963},{"buffer":0,"byteOffset":105488,"byteLength":1440,"target":34962,"byteStride":12},{"buffer":0,"byteOffset":106928,"byteLength":1440,"target":34962,"byteStride":12},{"buffer":0,"byteOffset":108368,"byteLength":960,"target":34962,"byteStride":8},{"buffer":0,"byteOffset":109328,"byteLength":288,"target":34963},{"buffer":0,"byteOffset":109616,"byteLength":1440,"target":34962,"byteStride":12},{"buffer":0,"byteOffset":111056,"byteLength":1440,"target":34962,"byteStride":12},{"buffer":0,"byteOffset":112496,"byteLength":960,"target":34962,"byteStride":8},{"buffer":0,"byteOffset":113456,"byteLength":288,"target":34963},{"buffer":0,"byteOffset":113744,"byteLength":1248,"target":34962,"byteStride":12},{"buffer":0,"byteOffset":114992,"byteLength":1248,"target":34962,"byteStride":12},{"buffer":0,"byteOffset":116240,"byteLength":832,"target":34962,"byteStride":8},{"buffer":0,"byteOffset":117072,"byteLength":312,"target":34963},{"buffer":0,"byteOffset":117384,"byteLength":3072,"target":34962,"byteStride":12},{"buffer":0,"byteOffset":120456,"byteLength":3072,"target":34962,"byteStride":12},{"buffer":0,"byteOffset":123528,"byteLength":2048,"target":34962,"byteStride":8},{"buffer":0,"byteOffset":125576,"byteLength":768,"target":34963},{"buffer":0,"byteOffset":126344,"byteLength":1440,"target":34962,"byteStride":12},{"buffer":0,"byteOffset":127784,"byteLength":1440,"target":34962,"byteStride":12},{"buffer":0,"byteOffset":129224,"byteLength":960,"target":34962,"byteStride":8},{"buffer":0,"byteOffset":130184,"byteLength":288,"target":34963},{"buffer":0,"byteOffset":130472,"byteLength":12},{"buffer":0,"byteOffset":130484,"byteLength":36},{"buffer":0,"byteOffset":130520,"byteLength":16},{"buffer":0,"byteOffset":130536,"byteLength":64},{"buffer":0,"byteOffset":130600,"byteLength":24},{"buffer":0,"byteOffset":130624,"byteLength":96},{"buffer":0,"byteOffset":130720,"byteLength":16},{"buffer":0,"byteOffset":130736,"byteLength":48},{"buffer":0,"byteOffset":130784,"byteLength":12},{"buffer":0,"byteOffset":130796,"byteLength":48},{"buffer":0,"byteOffset":130844,"byteLength":8},{"buffer":0,"byteOffset":130852,"byteLength":24},{"buffer":0,"byteOffset":130876,"byteLength":16},{"buffer":0,"byteOffset":130892,"byteLength":48},{"buffer":0,"byteOffset":130940,"byteLength":16},{"buffer":0,"byteOffset":130956,"byteLength":48},{"buffer":0,"byteOffset":131004,"byteLength":16},{"buffer":0,"byteOffset":131020,"byteLength":48}],"buffers":[{"byteLength":131068,"uri":"data:application/octet-stream;base64,"}],"accessors":[{"bufferView":0,"componentType":5126,"count":2536,"max":[2.125,1.2999197244644165,2.9183502197265625],"min":[-2.125,-0.16769589483737946,-2.125],"type":"VEC3"},{"bufferView":1,"componentType":5126,"count":2536,"max":[1,0.9999998211860657,1],"min":[-1,-1,-0.9998553991317749],"type":"VEC3"},{"bufferView":2,"componentType":5126,"count":2536,"max":[0.6314424872398376,0.53125],"min":[0,0],"type":"VEC2"},{"bufferView":3,"componentType":5123,"count":3804,"max":[2535],"min":[0],"type":"SCALAR"},{"bufferView":4,"componentType":5126,"count":120,"max":[0.25,0.75,2.859375],"min":[-0.25,0.0625,2.359375],"type":"VEC3"},{"bufferView":5,"componentType":5126,"count":120,"max":[1,1,1],"min":[-1,-1,-1],"type":"VEC3"},{"bufferView":6,"componentType":5126,"count":120,"max":[0.5,0.453125],"min":[0.004446874838322401,0],"type":"VEC2"},{"bufferView":7,"componentType":5123,"count":144,"max":[119],"min":[0],"type":"SCALAR"},{"bufferView":8,"componentType":5126,"count":256,"max":[0.15625,1,2.78125],"min":[-0.15625,0.5,2.46875],"type":"VEC3"},{"bufferView":9,"componentType":5126,"count":256,"max":[1,1,1],"min":[-1,-1,-1],"type":"VEC3"},{"bufferView":10,"componentType":5126,"count":256,"max":[0.625,0.6285237669944763],"min":[0.0390625,0],"type":"VEC2"},{"bufferView":11,"componentType":5123,"count":384,"max":[255],"min":[0],"type":"SCALAR"},{"bufferView":12,"componentType":5126,"count":104,"max":[0.3125,0.0625,-0.0625],"min":[-0.3125,-0.1875,-0.5625],"type":"VEC3"},{"bufferView":13,"componentType":5126,"count":104,"max":[1,1,1],"min":[-1,-1,-1],"type":"VEC3"},{"bufferView":14,"componentType":5126,"count":104,"max":[0.6205359101295471,0.53125],"min":[0.046875,0],"type":"VEC2"},{"bufferView":15,"componentType":5123,"count":156,"max":[103],"min":[0],"type":"SCALAR"},{"bufferView":16,"componentType":5126,"count":120,"max":[0.15625,0.375,0.46875],"min":[-0.15625,0.25,0.15625],"type":"VEC3"},{"bufferView":17,"componentType":5126,"count":120,"max":[1,1,1],"min":[-1,-1,-1],"type":"VEC3"},{"bufferView":18,"componentType":5126,"count":120,"max":[0.0647047758102417,0.125],"min":[0,0],"type":"VEC2"},{"bufferView":19,"componentType":5123,"count":144,"max":[119],"min":[0],"type":"SCALAR"},{"bufferView":20,"componentType":5126,"count":120,"max":[0.15625,0.375,0.46875],"min":[-0.15625,0.25,0.15625],"type":"VEC3"},{"bufferView":21,"componentType":5126,"count":120,"max":[1,1,1],"min":[-1,-1,-1],"type":"VEC3"},{"bufferView":22,"componentType":5126,"count":120,"max":[0.0647047758102417,0.125],"min":[0,0],"type":"VEC2"},{"bufferView":23,"componentType":5123,"count":144,"max":[119],"min":[0],"type":"SCALAR"},{"bufferView":24,"componentType":5126,"count":104,"max":[0.3125,0.125,0.125],"min":[-0.3125,0,-0.375],"type":"VEC3"},{"bufferView":25,"componentType":5126,"count":104,"max":[1,1,1],"min":[-1,-1,-1],"type":"VEC3"},{"bufferView":26,"componentType":5126,"count":104,"max":[0.6693523526191711,0.625],"min":[0.109375,0],"type":"VEC2"},{"bufferView":27,"componentType":5123,"count":156,"max":[103],"min":[0],"type":"SCALAR"},{"bufferView":28,"componentType":5126,"count":256,"max":[0.09375,0.5625,0.09375],"min":[-0.09375,0.3125,-0.09375],"type":"VEC3"},{"bufferView":29,"componentType":5126,"count":256,"max":[1,1,1],"min":[-1,-1,-1],"type":"VEC3"},{"bufferView":30,"componentType":5126,"count":256,"max":[0.625,0.6285237669944763],"min":[0.0390625,0],"type":"VEC2"},{"bufferView":31,"componentType":5123,"count":384,"max":[255],"min":[0],"type":"SCALAR"},{"bufferView":32,"componentType":5126,"count":120,"max":[0.171875,0.375,0.171875],"min":[-0.171875,-0.125,-0.171875],"type":"VEC3"},{"bufferView":33,"componentType":5126,"count":120,"max":[1,1,1],"min":[-1,-1,-1],"type":"VEC3"},{"bufferView":34,"componentType":5126,"count":120,"max":[0.048529621213674545,0.125],"min":[0,0],"type":"VEC2"},{"bufferView":35,"componentType":5123,"count":144,"max":[119],"min":[0],"type":"SCALAR"},{"bufferView":36,"componentType":5126,"count":3,"max":[0.5],"min":[0],"type":"SCALAR"},{"bufferView":37,"componentType":5126,"count":3,"max":[0,0.75,0],"min":[0,0.6875,0],"type":"VEC3"},{"bufferView":38,"componentType":5126,"count":4,"max":[1.6666666269302368],"min":[0],"type":"SCALAR"},{"bufferView":39,"componentType":5126,"count":4,"max":[0,0.8660253882408142,0,1],"min":[0,0,0,-1],"type":"VEC4"},{"bufferView":40,"componentType":5126,"count":6,"max":[1.625],"min":[0],"type":"SCALAR"},{"bufferView":41,"componentType":5126,"count":6,"max":[0.7071067690849304,0,0,1],"min":[-0.7071067690849304,0,0,0.7071067690849304],"type":"VEC4"},{"bufferView":42,"componentType":5126,"count":4,"max":[1.7916666269302368],"min":[0],"type":"SCALAR"},{"bufferView":43,"componentType":5126,"count":4,"max":[0,0,0.375],"min":[0,0,0.1875],"type":"VEC3"},{"bufferView":44,"componentType":5126,"count":3,"max":[1],"min":[0],"type":"SCALAR"},{"bufferView":45,"componentType":5126,"count":3,"max":[0,0,0,1],"min":[-0.7071067690849304,0,0,0.7071067690849304],"type":"VEC4"},{"bufferView":46,"componentType":5126,"count":2,"max":[0.2916666567325592],"min":[0],"type":"SCALAR"},{"bufferView":47,"componentType":5126,"count":2,"max":[0,0,0],"min":[0,0,-0.5],"type":"VEC3"},{"bufferView":48,"componentType":5126,"count":4,"max":[0.75],"min":[0],"type":"SCALAR"},{"bufferView":49,"componentType":5126,"count":4,"max":[1,1,1],"min":[0.20000000298023224,1,0.20000000298023224],"type":"VEC3"},{"bufferView":50,"componentType":5126,"count":4,"max":[0.4166666567325592],"min":[0],"type":"SCALAR"},{"bufferView":51,"componentType":5126,"count":4,"max":[0,0,0],"min":[0,-0.09375,0],"type":"VEC3"},{"bufferView":52,"componentType":5126,"count":4,"max":[0.4166666567325592],"min":[0],"type":"SCALAR"},{"bufferView":53,"componentType":5126,"count":4,"max":[0,0.0625,0],"min":[0,0,0],"type":"VEC3"}],"materials":[{"pbrMetallicRoughness":{"metallicFactor":0,"roughnessFactor":1,"baseColorTexture":{"index":0}},"alphaMode":"MASK","alphaCutoff":0.05,"doubleSided":true},{"pbrMetallicRoughness":{"metallicFactor":0,"roughnessFactor":1,"baseColorTexture":{"index":1}},"alphaMode":"MASK","alphaCutoff":0.05,"doubleSided":true}],"textures":[{"sampler":0,"source":0,"name":"Frametexture.png"},{"sampler":1,"source":1,"name":"Buttontexture"}],"samplers":[{"magFilter":9728,"minFilter":9728,"wrapS":33071,"wrapT":33071},{"magFilter":9728,"minFilter":9728,"wrapS":33071,"wrapT":33071}],"images":[{"mimeType":"image/png","uri":"data:image/png;base64,"},{"mimeType":"image/png","uri":"data:image/png;base64,"}],"meshes":[{"primitives":[{"mode":4,"attributes":{"POSITION":0,"NORMAL":1,"TEXCOORD_0":2},"indices":3,"material":0}]},{"primitives":[{"mode":4,"attributes":{"POSITION":4,"NORMAL":5,"TEXCOORD_0":6},"indices":7,"material":1}]},{"primitives":[{"mode":4,"attributes":{"POSITION":8,"NORMAL":9,"TEXCOORD_0":10},"indices":11,"material":1}]},{"primitives":[{"mode":4,"attributes":{"POSITION":12,"NORMAL":13,"TEXCOORD_0":14},"indices":15,"material":1}]},{"primitives":[{"mode":4,"attributes":{"POSITION":16,"NORMAL":17,"TEXCOORD_0":18},"indices":19,"material":1}]},{"primitives":[{"mode":4,"attributes":{"POSITION":20,"NORMAL":21,"TEXCOORD_0":22},"indices":23,"material":1}]},{"primitives":[{"mode":4,"attributes":{"POSITION":24,"NORMAL":25,"TEXCOORD_0":26},"indices":27,"material":1}]},{"primitives":[{"mode":4,"attributes":{"POSITION":28,"NORMAL":29,"TEXCOORD_0":30},"indices":31,"material":1}]},{"primitives":[{"mode":4,"attributes":{"POSITION":32,"NORMAL":33,"TEXCOORD_0":34},"indices":35,"material":1}]}],"animations":[{"name":"ButtonPressed","samplers":[{"input":36,"output":37,"interpolation":"LINEAR"}],"channels":[{"sampler":0,"target":{"node":4,"path":"translation"}}]},{"name":"ButtonLocking","samplers":[{"input":38,"output":39,"interpolation":"LINEAR"},{"input":40,"output":41,"interpolation":"LINEAR"},{"input":42,"output":43,"interpolation":"LINEAR"},{"input":44,"output":45,"interpolation":"LINEAR"},{"input":46,"output":47,"interpolation":"LINEAR"}],"channels":[{"sampler":0,"target":{"node":4,"path":"rotation"}},{"sampler":1,"target":{"node":9,"path":"rotation"}},{"sampler":2,"target":{"node":9,"path":"translation"}},{"sampler":3,"target":{"node":10,"path":"rotation"}},{"sampler":4,"target":{"node":10,"path":"translation"}}]},{"name":"KillButtonPressed","samplers":[{"input":48,"output":49,"interpolation":"LINEAR"},{"input":50,"output":51,"interpolation":"LINEAR"},{"input":52,"output":53,"interpolation":"LINEAR"}],"channels":[{"sampler":0,"target":{"node":1,"path":"scale"}},{"sampler":1,"target":{"node":13,"path":"translation"}},{"sampler":2,"target":{"node":15,"path":"translation"}}]}]}